<svg width="16" height="20" viewBox="0 0 16 20" fill="none" xmlns="http://www.w3.org/2000/svg">
<path d="M15.4905 6.70059C15.3758 6.78976 13.3631 7.92353 13.3631 10.4458C13.3631 13.3629 15.9235 14.3948 16 14.4202C15.9873 14.4839 15.5924 15.8342 14.6496 17.21C13.8089 18.4202 12.9299 19.6303 11.5924 19.6303C10.2548 19.6303 9.91082 18.8533 8.36941 18.8533C6.86624 18.8533 6.33117 19.6559 5.10823 19.6559C3.88529 19.6559 3.03176 18.5348 2.05094 17.159C0.917176 15.5412 0 13.0316 0 10.6495C0 6.82787 2.48412 4.80234 4.92988 4.80234C6.22929 4.80234 7.312 5.65587 8.12729 5.65587C8.90435 5.65587 10.1146 4.7514 11.5922 4.7514C12.1528 4.75153 14.1656 4.80259 15.4905 6.70059ZM10.8918 3.13376C11.5032 2.40765 11.9364 1.40129 11.9364 0.394943C11.9364 0.254826 11.9237 0.114709 11.8981 0C10.9045 0.0382362 9.71977 0.662474 9.00635 1.49047C8.44588 2.12741 7.92353 3.13377 7.92353 4.15295C7.92353 4.30577 7.94906 4.45871 7.96176 4.50965C8.02541 4.52236 8.12741 4.53518 8.22929 4.53518C9.12106 4.53506 10.242 3.93635 10.8918 3.13376Z" fill="white"/>
</svg>
